<svg xmlns="http://www.w3.org/2000/svg" viewBox="0 0 200 200" width="200" height="200">
  <defs>
    <linearGradient id="bg" x1="0%" y1="0%" x2="100%" y2="100%">
      <stop offset="0%" stop-color="#78350f" />
      <stop offset="100%" stop-color="#451a03" />
    </linearGradient>
  </defs>
  <rect width="200" height="200" fill="url(#bg)" />
  
  <!-- Colosseum abstract shape -->
  <path d="M 40 140 C 40 120, 160 120, 160 140 L 160 160 L 40 160 Z" fill="#d4af37" opacity="0.8" />
  <path d="M 50 140 C 60 125, 140 125, 150 140" fill="none" stroke="#451a03" stroke-width="4" />
  
  <!-- Pillars -->
  <rect x="55" y="140" width="10" height="20" fill="#451a03" />
  <rect x="80" y="140" width="10" height="20" fill="#451a03" />
  <rect x="105" y="140" width="10" height="20" fill="#451a03" />
  <rect x="130" y="140" width="10" height="20" fill="#451a03" />

  <!-- Hourglass -->
  <path d="M 90 60 L 110 60 L 105 75 L 110 90 L 90 90 L 95 75 Z" fill="#fef3c7" opacity="0.9" />
  <path d="M 90 60 L 110 60 L 105 75 L 110 90 L 90 90 L 95 75 Z" fill="none" stroke="#d4af37" stroke-width="2" />
</svg>
